<svg enable-background="new 0 0 512 512" viewBox="0 0 512 640" xmlns="http://www.w3.org/2000/svg"><path d="m256.501 105.565-.993.004c-33.976.262-65.687 13.642-89.292 37.675-23.577 24.005-36.369 55.899-36.02 89.807.29 32.202 12.789 62.792 35.195 86.141 17.479 17.986 29.297 41.846 33.261 67.164 1.199 8.356 8.598 14.62 17.219 14.62h19.695c2.721-3.832 6.435-19.868-12.249-86.539-11.288-40.278-25.269-79.161-25.408-79.55-.75-2.078.328-4.37 2.406-5.119 2.077-.75 4.37.327 5.119 2.406.141.391 14.209 39.513 25.576 80.067 15.521 55.375 16.405 78.419 13.241 88.734h24.152c-3.153-10.313-2.261-33.355 13.249-88.733 11.358-40.555 25.41-79.677 25.551-80.067.749-2.079 3.039-3.156 5.119-2.408 2.078.749 3.156 3.04 2.408 5.119-.14.388-14.105 39.271-25.385 79.551-18.664 66.652-14.977 82.699-12.266 86.539h19.623c8.722 0 16.018-6.199 17.347-14.74 3.846-25.361 15.264-48.531 33.018-66.988 22.855-23.615 35.438-54.694 35.438-87.522.001-69.566-56.525-126.161-126.004-126.161zm88.968 122.314c-2.209 0-4-1.791-4-4 0-19.553-7.637-37.901-21.502-51.667-13.822-13.722-32.162-21.195-51.628-21.058-.01 0-.021 0-.03 0-2.195 0-3.982-1.771-3.999-3.971-.017-2.209 1.762-4.013 3.971-4.029.2-.001.404-.002.604-.002 21.395 0 41.514 8.289 56.718 23.383 15.391 15.278 23.866 35.644 23.866 57.344 0 2.209-1.791 4-4 4z"/><path d="m224.471 478.434c1.576 5.874 6.899 9.98 12.945 9.98h37.741c6.134 0 11.366-4.024 13.019-10.014l2.429-8.947h-68.529z"/><path d="m301.623 414.772h-90.734c-5.999 0-10.88 4.884-10.88 10.887v15.443c0 10.192 7.235 18.708 17.233 20.351h78.227c9.764-1.569 17.102-10.219 17.102-20.228v-15.443c-.001-6.078-4.809-10.915-10.948-11.01z"/><path d="m256 76.989c2.209 0 4-1.791 4-4v-45.403c0-2.209-1.791-4-4-4s-4 1.791-4 4v45.403c0 2.209 1.791 4 4 4z"/><path d="m344.104 100.613c.631.364 1.319.538 1.999.538 1.382 0 2.726-.717 3.467-1.998l22.731-39.301c1.105-1.912.452-4.359-1.46-5.466-1.914-1.105-4.36-.452-5.466 1.46l-22.731 39.301c-1.105 1.913-.452 4.36 1.46 5.466z"/><path d="m454.882 138.428c-1.107-1.912-3.553-2.565-5.466-1.46l-39.295 22.73c-1.912 1.106-2.565 3.554-1.46 5.466.742 1.281 2.085 1.998 3.467 1.998.68 0 1.368-.174 1.999-.538l39.295-22.73c1.912-1.107 2.565-3.554 1.46-5.466z"/><path d="m481.685 249.275h-45.398c-2.209 0-4 1.791-4 4s1.791 4 4 4h45.398c2.209 0 4-1.791 4-4s-1.791-4-4-4z"/><path d="m97.877 339.983-39.295 22.661c-1.914 1.104-2.57 3.55-1.467 5.463.74 1.284 2.086 2.003 3.469 2.003.678 0 1.365-.173 1.995-.536l39.294-22.661c1.914-1.104 2.57-3.55 1.467-5.463s-3.548-2.571-5.463-1.467z"/><path d="m79.713 253.275c0-2.209-1.791-4-4-4h-45.398c-2.209 0-4 1.791-4 4s1.791 4 4 4h45.397c2.21 0 4.001-1.791 4.001-4z"/><path d="m101.878 159.698-39.294-22.73c-1.914-1.105-4.359-.452-5.466 1.46s-.452 4.359 1.46 5.466l39.294 22.73c.631.364 1.319.538 1.999.538 1.381 0 2.725-.717 3.467-1.998 1.105-1.912.452-4.359-1.46-5.466z"/><path d="m162.361 99.148c.741 1.284 2.086 2.003 3.469 2.003.678 0 1.365-.173 1.995-.536 1.913-1.104 2.57-3.55 1.466-5.463l-22.666-39.301c-1.104-1.913-3.55-2.571-5.463-1.467-1.914 1.104-2.57 3.55-1.467 5.463z"/><g font-family="'Helvetica Neue', Helvetica, Arial-Unicode, Arial, Sans-serif" font-size="5" font-weight="bold"><text y="527">Created by ibrandify</text><text y="532">from the Noun Project</text></g></svg>