<svg xmlns="http://www.w3.org/2000/svg" xmlns:xlink="http://www.w3.org/1999/xlink" version="1.1" x="0px" y="0px" viewBox="0 0 512 640" style="enable-background:new 0 0 512 512;" xml:space="preserve"><g><g><path d="M256.501,105.565l-0.993,0.004c-33.976,0.262-65.687,13.642-89.292,37.675c-23.577,24.005-36.369,55.899-36.02,89.807    c0.29,32.202,12.789,62.792,35.195,86.141c17.479,17.986,29.297,41.846,33.261,67.164c1.199,8.356,8.598,14.62,17.219,14.62    h19.695c2.721-3.832,6.435-19.868-12.249-86.539c-11.288-40.278-25.269-79.161-25.408-79.55c-0.75-2.078,0.328-4.37,2.406-5.119    c2.077-0.75,4.37,0.327,5.119,2.406c0.141,0.391,14.209,39.513,25.576,80.067c15.521,55.375,16.405,78.419,13.241,88.734h24.152    c-3.153-10.313-2.261-33.355,13.249-88.733c11.358-40.555,25.41-79.677,25.551-80.067c0.749-2.079,3.039-3.156,5.119-2.408    c2.078,0.749,3.156,3.04,2.408,5.119c-0.14,0.388-14.105,39.271-25.385,79.551c-18.664,66.652-14.977,82.699-12.266,86.539h19.623    c8.722,0,16.018-6.199,17.347-14.74c3.846-25.361,15.264-48.531,33.018-66.988c22.855-23.615,35.438-54.694,35.438-87.522    C382.506,162.16,325.98,105.565,256.501,105.565z M345.469,227.879c-2.209,0-4-1.791-4-4c0-19.553-7.637-37.901-21.502-51.667    c-13.822-13.722-32.162-21.195-51.628-21.058c-0.01,0-0.021,0-0.03,0c-2.195,0-3.982-1.771-3.999-3.971    c-0.017-2.209,1.762-4.013,3.971-4.029c0.2-0.001,0.404-0.002,0.604-0.002c21.395,0,41.514,8.289,56.718,23.383    c15.391,15.278,23.866,35.644,23.866,57.344C349.469,226.088,347.678,227.879,345.469,227.879z"/><path d="M224.471,478.434c1.576,5.874,6.899,9.98,12.945,9.98h37.741c6.134,0,11.366-4.024,13.019-10.014l2.429-8.947h-68.529    L224.471,478.434z"/><path d="M301.623,414.772h-90.734c-5.999,0-10.88,4.884-10.88,10.887v15.443c0,10.192,7.235,18.708,17.233,20.351h78.227    c9.764-1.569,17.102-10.219,17.102-20.228v-15.443C312.57,419.704,307.762,414.867,301.623,414.772z"/><path d="M256,76.989c2.209,0,4-1.791,4-4V27.586c0-2.209-1.791-4-4-4s-4,1.791-4,4v45.403C252,75.198,253.791,76.989,256,76.989z"/><path d="M344.104,100.613c0.631,0.364,1.319,0.538,1.999,0.538c1.382,0,2.726-0.717,3.467-1.998l22.731-39.301    c1.105-1.912,0.452-4.359-1.46-5.466c-1.914-1.105-4.36-0.452-5.466,1.46l-22.731,39.301    C341.539,97.06,342.192,99.507,344.104,100.613z"/><path d="M454.882,138.428c-1.107-1.912-3.553-2.565-5.466-1.46l-39.295,22.73c-1.912,1.106-2.565,3.554-1.46,5.466    c0.742,1.281,2.085,1.998,3.467,1.998c0.68,0,1.368-0.174,1.999-0.538l39.295-22.73    C455.334,142.787,455.987,140.34,454.882,138.428z"/><path d="M481.685,249.275h-45.398c-2.209,0-4,1.791-4,4s1.791,4,4,4h45.398c2.209,0,4-1.791,4-4S483.894,249.275,481.685,249.275z    "/><path d="M97.877,339.983l-39.295,22.661c-1.914,1.104-2.57,3.55-1.467,5.463c0.74,1.284,2.086,2.003,3.469,2.003    c0.678,0,1.365-0.173,1.995-0.536l39.294-22.661c1.914-1.104,2.57-3.55,1.467-5.463    C102.237,339.537,99.792,338.879,97.877,339.983z"/><path d="M79.713,253.275c0-2.209-1.791-4-4-4H30.315c-2.209,0-4,1.791-4,4s1.791,4,4,4h45.397    C77.922,257.275,79.713,255.484,79.713,253.275z"/><path d="M101.878,159.698l-39.294-22.73c-1.914-1.105-4.359-0.452-5.466,1.46s-0.452,4.359,1.46,5.466l39.294,22.73    c0.631,0.364,1.319,0.538,1.999,0.538c1.381,0,2.725-0.717,3.467-1.998C104.443,163.252,103.79,160.805,101.878,159.698z"/><path d="M162.361,99.148c0.741,1.284,2.086,2.003,3.469,2.003c0.678,0,1.365-0.173,1.995-0.536c1.913-1.104,2.57-3.55,1.466-5.463    l-22.666-39.301c-1.104-1.913-3.55-2.571-5.463-1.467c-1.914,1.104-2.57,3.55-1.467,5.463L162.361,99.148z"/></g></g><text x="0" y="527" fill="#000000" font-size="5px" font-weight="bold" font-family="'Helvetica Neue', Helvetica, Arial-Unicode, Arial, Sans-serif">Created by ibrandify</text><text x="0" y="532" fill="#000000" font-size="5px" font-weight="bold" font-family="'Helvetica Neue', Helvetica, Arial-Unicode, Arial, Sans-serif">from the Noun Project</text></svg>